<?xml version="1.0" encoding="UTF-8" standalone="no"?>
<!-- Created with Inkscape (http://www.inkscape.org/) -->

<svg
   xmlns:dc="http://purl.org/dc/elements/1.1/"
   xmlns:cc="http://creativecommons.org/ns#"
   xmlns:rdf="http://www.w3.org/1999/02/22-rdf-syntax-ns#"
   xmlns:svg="http://www.w3.org/2000/svg"
   xmlns="http://www.w3.org/2000/svg"
   xmlns:sodipodi="http://sodipodi.sourceforge.net/DTD/sodipodi-0.dtd"
   xmlns:inkscape="http://www.inkscape.org/namespaces/inkscape"
   width="43.547729mm"
   height="9.6040649mm"
   viewBox="0 0 43.547729 9.6040649"
   version="1.1"
   id="svg4599"
   inkscape:version="0.92.4 (5da689c313, 2019-01-14)"
   sodipodi:docname="brand.svg">
  <defs
     id="defs4593" />
  <sodipodi:namedview
     id="base"
     pagecolor="#ffffff"
     bordercolor="#666666"
     borderopacity="1.0"
     inkscape:pageopacity="0.0"
     inkscape:pageshadow="2"
     inkscape:zoom="1.4142136"
     inkscape:cx="58.57761"
     inkscape:cy="-153.69446"
     inkscape:document-units="mm"
     inkscape:current-layer="layer1"
     showgrid="false"
     inkscape:window-width="1920"
     inkscape:window-height="1051"
     inkscape:window-x="-9"
     inkscape:window-y="-9"
     inkscape:window-maximized="1" />
  <metadata
     id="metadata4596">
    <rdf:RDF>
      <cc:Work
         rdf:about="">
        <dc:format>image/svg+xml</dc:format>
        <dc:type
           rdf:resource="http://purl.org/dc/dcmitype/StillImage" />
        <dc:title></dc:title>
      </cc:Work>
    </rdf:RDF>
  </metadata>
  <g
     inkscape:label="Ebene 1"
     inkscape:groupmode="layer"
     id="layer1"
     transform="translate(210.05126,-17.351395)">
    <g
       aria-label="Maß-o-Meter"
       transform="scale(0.26458333)"
       style="font-style:normal;font-variant:normal;font-weight:normal;font-stretch:normal;font-size:40px;line-height:1.25;font-family:Gabriola;-inkscape-font-specification:Gabriola;letter-spacing:0px;word-spacing:0px;fill:#000000;fill-opacity:1;stroke:none"
       id="flowRoot5144">
      <path
         d="m -767.94727,91.283203 q -0.70312,0.302734 -1.29882,0.527344 -0.58594,0.214844 -1.09375,0.351562 -0.50782,0.146485 -0.94727,0.214844 -0.43945,0.06836 -0.84961,0.06836 -0.55664,0 -0.97656,-0.214843 -0.41992,-0.205078 -0.70313,-0.683594 -0.27343,-0.478516 -0.41015,-1.259766 -0.13672,-0.78125 -0.13672,-1.933593 v -0.859375 q 0,-0.605469 0,-1.396485 0.01,-0.800781 0.0195,-1.689453 0.01,-0.898437 0.0195,-1.826172 0.0195,-0.927734 0.0391,-1.787109 0.0195,-0.869141 0.0391,-1.621094 0.0195,-0.751953 0.0391,-1.279297 0.0488,-1.142578 0.10742,-2.27539 0.0684,-1.142579 0.17578,-2.236329 l -0.0781,-0.0293 q -0.16602,0.439453 -0.40039,1.005859 -0.23438,0.556641 -0.59571,1.347656 -0.85937,1.894531 -1.75781,3.925781 -0.88867,2.03125 -1.80664,4.150391 -0.9082,2.109375 -1.83594,4.287109 -0.92773,2.167969 -1.8457,4.335938 l -0.47852,-0.01953 q -0.20507,-0.664063 -0.49804,-1.5625 -0.29297,-0.908203 -0.64453,-1.953125 -0.35157,-1.054688 -0.75196,-2.216797 -0.39062,-1.171875 -0.80078,-2.363281 -0.41015,-1.201172 -0.83008,-2.392579 -0.41015,-1.191406 -0.80078,-2.294921 -0.38086,-1.103516 -0.73242,-2.070313 -0.3418,-0.976562 -0.61523,-1.738281 -0.3125,-0.888672 -0.54688,-1.572266 -0.22461,-0.683594 -0.39062,-1.210937 l -0.0684,0.0293 q 0,0.292968 0,0.585937 0.01,0.283203 0.01,0.615234 v 1.611329 q 0,1.552734 -0.0488,3.173828 -0.0488,1.611328 -0.12695,3.183593 -0.0781,1.5625 -0.18555,3.027344 -0.10742,1.464844 -0.22461,2.705078 -0.0977,1.025391 -0.18554,1.748047 -0.0781,0.712891 -0.18555,1.201172 -0.0977,0.488281 -0.24414,0.771484 -0.14648,0.273438 -0.37109,0.419922 -0.21485,0.146485 -0.53711,0.185547 -0.3125,0.03906 -0.75196,0.03906 h -0.29296 q -0.0879,0 -0.21485,-0.0098 -0.12695,0 -0.3125,-0.0098 l -0.13672,-0.09766 q 0.45899,-0.947265 0.81055,-2.109375 0.36133,-1.171875 0.625,-2.480469 0.27344,-1.308593 0.46875,-2.705078 0.19531,-1.40625 0.32227,-2.802734 0.13671,-1.396484 0.21484,-2.753906 0.0879,-1.357422 0.12695,-2.578125 0.0391,-1.220703 0.0488,-2.25586 0.0195,-1.035156 0.0195,-1.80664 0,-0.498047 -0.0684,-0.820313 -0.0684,-0.322265 -0.24414,-0.507812 -0.16601,-0.195313 -0.46875,-0.263672 -0.29297,-0.07813 -0.76172,-0.07813 -0.32226,0 -0.74218,0.04883 -0.41993,0.03906 -0.92774,0.117187 l -0.10742,-0.859375 q 1.78711,-0.410156 2.93945,-0.605468 1.15235,-0.205078 1.83594,-0.205078 0.35156,0 0.60547,0.06836 0.2539,0.05859 0.43945,0.214844 0.19531,0.146484 0.3418,0.40039 0.14648,0.244141 0.2832,0.615235 0.51758,1.445312 1.09375,3.076172 0.57617,1.630859 1.17188,3.330078 0.60547,1.699218 1.20117,3.408203 0.60547,1.699219 1.16211,3.300781 0.21484,0.634766 0.39062,1.162109 0.18555,0.517579 0.33203,0.966797 0.15625,0.439453 0.28321,0.84961 0.13672,0.40039 0.2539,0.800781 h 0.0684 q 0.15625,-0.419922 0.32227,-0.820313 0.16601,-0.410156 0.35156,-0.839843 0.18555,-0.439453 0.40039,-0.9375 0.22461,-0.498047 0.49805,-1.123047 0.68359,-1.5625 1.41601,-3.242188 0.74219,-1.679687 1.51368,-3.4375 0.78125,-1.757812 1.58203,-3.564453 0.80078,-1.80664 1.61133,-3.623047 0.0879,-0.195312 0.23437,-0.322265 0.15625,-0.126953 0.33203,-0.195313 0.18555,-0.07813 0.38086,-0.107422 0.19531,-0.0293 0.36133,-0.0293 0.2832,0 0.61523,0.07813 0.3418,0.06836 0.6543,0.205079 -0.14648,1.601562 -0.26367,3.066406 -0.10742,1.464844 -0.18555,2.851562 -0.0781,1.386719 -0.13672,2.744141 -0.0586,1.347656 -0.0879,2.724609 -0.0293,1.376953 -0.0488,2.8125 -0.01,1.435547 -0.01,2.998047 0,1.035156 0.0879,1.767578 0.0879,0.732422 0.30273,1.201172 0.22461,0.458985 0.59571,0.673828 0.37109,0.214844 0.92773,0.214844 0.20508,0 0.39063,-0.0098 0.19531,-0.0098 0.40039,-0.03906 0.20507,-0.03906 0.44922,-0.107422 0.2539,-0.06836 0.57617,-0.175781 z"
         style=""
         id="path5152" />
      <path
         d="m -759.13867,81.966797 q 0,-0.771485 -0.25391,-1.337891 -0.2539,-0.566406 -0.66406,-0.927734 -0.41016,-0.361328 -0.92773,-0.53711 -0.51758,-0.175781 -1.03516,-0.175781 -0.69336,0 -1.17188,0.146485 -0.47851,0.146484 -0.78125,0.40039 -0.29296,0.253906 -0.42968,0.605469 -0.12696,0.341797 -0.12696,0.742187 0,0.46875 0.16602,0.947266 0.17578,0.46875 0.50781,0.917969 l -0.0391,0.107422 q -0.55664,0.273437 -1.12305,0.273437 -0.33203,0 -0.625,-0.09766 -0.2832,-0.107422 -0.49804,-0.302734 -0.20508,-0.195313 -0.33204,-0.478516 -0.11718,-0.283203 -0.11718,-0.634766 0,-0.576172 0.27343,-1.083984 0.28321,-0.507813 0.74219,-0.927734 0.45899,-0.419922 1.06445,-0.751954 0.60547,-0.332031 1.25,-0.55664 0.64454,-0.234375 1.28907,-0.351563 0.65429,-0.126953 1.21093,-0.126953 1.0254,0 1.74805,0.273438 0.73242,0.273437 1.18164,0.800781 0.45899,0.517578 0.66406,1.259766 0.21485,0.742187 0.21485,1.679687 0,0.644531 -0.0586,1.416016 -0.0488,0.771484 -0.11718,1.621093 -0.0684,0.839844 -0.12696,1.738282 -0.0488,0.898437 -0.0488,1.787109 0,1.40625 0.51757,2.119141 0.52735,0.703125 1.37696,0.703125 0.75195,0 1.67968,-0.556641 l 0.28321,0.419922 q -0.6543,0.654297 -1.42578,0.996094 -0.77149,0.341797 -1.6211,0.341797 -0.63476,0 -1.17187,-0.214844 -0.53711,-0.214844 -0.92774,-0.634766 -0.39062,-0.429687 -0.60547,-1.074219 -0.21484,-0.644531 -0.21484,-1.49414 0,-0.253906 0.01,-0.507813 0.0195,-0.253906 0.0684,-0.537109 h -0.0586 q -0.41992,0.839844 -0.97656,1.660156 -0.54688,0.810547 -1.21094,1.455078 -0.65429,0.634766 -1.40625,1.025391 -0.74219,0.400391 -1.5625,0.400391 -0.67383,0 -1.23047,-0.234375 -0.55664,-0.234375 -0.95703,-0.644532 -0.39062,-0.410156 -0.61523,-0.966797 -0.21485,-0.566406 -0.21485,-1.230468 0,-0.859375 0.3125,-1.5625 0.32227,-0.703125 0.87891,-1.259766 0.56641,-0.556641 1.34766,-0.957031 0.78125,-0.410156 1.69922,-0.673828 0.91796,-0.273438 1.94335,-0.400391 1.0254,-0.136719 2.08985,-0.136719 0.0684,-0.615234 0.10742,-1.191406 0.0488,-0.576172 0.0488,-1.269531 z m -5.9961,6.708984 q 0,0.38086 0.0781,0.732422 0.0879,0.341797 0.26367,0.605469 0.18555,0.263672 0.45899,0.419922 0.2832,0.146484 0.67382,0.146484 0.43946,0 0.90821,-0.205078 0.46875,-0.205078 0.91797,-0.566406 0.45898,-0.361328 0.86914,-0.859375 0.41992,-0.507813 0.75195,-1.103516 0.33203,-0.595703 0.54687,-1.25 0.22461,-0.664062 0.29297,-1.357422 -0.72265,0.01953 -1.43554,0.09766 -0.71289,0.06836 -1.35743,0.22461 -0.63476,0.15625 -1.18164,0.410156 -0.54687,0.253906 -0.94726,0.634766 -0.39063,0.371093 -0.61524,0.888672 -0.22461,0.507812 -0.22461,1.18164 z"
         style=""
         id="path5154" />
      <path
         d="m -759.05078,98.539062 q 0.2832,0.507813 0.63476,0.859375 0.3418,0.361329 0.73243,0.585938 0.38086,0.234375 0.81054,0.341795 0.41993,0.10742 0.84961,0.10742 1.12305,0 1.9043,-0.732418 0.79102,-0.722656 1.31836,-2.070313 0.52734,-1.33789 0.83008,-3.232422 0.3125,-1.884765 0.46875,-4.199218 0.15625,-2.314453 0.20508,-5 0.0586,-2.685547 0.0781,-5.625 -0.91797,0.0098 -1.69922,0.06836 -0.78125,0.05859 -1.30859,0.253906 -0.0391,-0.06836 -0.0391,-0.15625 0,-0.234375 0.21484,-0.429687 0.22461,-0.205078 0.625,-0.351563 0.40039,-0.15625 0.9668,-0.24414 0.5664,-0.09766 1.25976,-0.126953 0.0586,-2.275391 0.3418,-4.042969 0.29297,-1.777344 0.74219,-3.115235 0.44921,-1.347656 1.00586,-2.294921 0.5664,-0.957032 1.17187,-1.601563 0.61523,-0.654297 1.23047,-1.035156 0.61523,-0.390625 1.16211,-0.595703 0.54687,-0.205078 0.98633,-0.263672 0.44922,-0.05859 0.71289,-0.05859 1.12304,0 2.02148,0.419922 0.9082,0.419922 1.5332,1.103516 0.63477,0.673828 0.9668,1.533203 0.3418,0.859375 0.3418,1.748047 0,0.927734 -0.17578,1.669921 -0.17578,0.732422 -0.49805,1.386719 -0.32227,0.644531 -0.79102,1.25 -0.45898,0.605469 -1.03515,1.259766 -0.32227,0.361328 -0.61524,0.71289 -0.2832,0.341797 -0.50781,0.69336 -0.21484,0.351562 -0.3418,0.722656 -0.12695,0.371094 -0.12695,0.78125 0,0.292969 0.15625,0.615234 0.16602,0.3125 0.44922,0.683594 0.29297,0.361328 0.67383,0.771485 0.38086,0.410156 0.82031,0.878906 0.61524,0.644531 1.18164,1.298828 0.57617,0.654297 1.01563,1.337891 0.43945,0.673828 0.70312,1.396484 0.26367,0.712891 0.26367,1.474609 0,1.113282 -0.44922,2.070313 -0.43945,0.957031 -1.20117,1.660156 -0.75195,0.693359 -1.76758,1.09375 -1.00585,0.400391 -2.1289,0.400391 -0.57617,0 -1.13281,-0.107422 -0.55664,-0.09766 -1.06446,-0.292969 -0.50781,-0.185547 -0.9375,-0.449219 -0.42968,-0.273437 -0.75195,-0.605468 -0.3125,-0.332032 -0.48828,-0.712891 -0.17578,-0.380859 -0.17578,-0.800781 0,-0.38086 0.16601,-0.644532 0.16602,-0.273437 0.42969,-0.439453 0.26367,-0.175781 0.5957,-0.253906 0.33203,-0.07813 0.67383,-0.07813 l 0.0781,0.06836 q 0.0488,0.712891 0.30273,1.289063 0.25391,0.566406 0.66406,0.976562 0.41993,0.400391 0.9668,0.615235 0.54688,0.214844 1.18164,0.214844 0.72266,0 1.25977,-0.244141 0.54687,-0.253906 0.89843,-0.683594 0.36133,-0.429687 0.53711,-1.005859 0.17578,-0.585938 0.17578,-1.25 0,-0.664063 -0.24414,-1.279297 -0.23437,-0.625 -0.625,-1.210938 -0.39062,-0.585937 -0.8789,-1.132812 -0.47852,-0.546875 -0.97656,-1.074219 -0.45899,-0.478515 -0.86915,-0.9375 -0.41015,-0.458984 -0.72265,-0.908203 -0.3125,-0.449219 -0.49805,-0.888672 -0.18555,-0.449219 -0.18555,-0.898437 0,-0.419922 0.12696,-0.800782 0.12695,-0.390625 0.34179,-0.761718 0.21485,-0.371094 0.49805,-0.732422 0.2832,-0.361328 0.5957,-0.732422 0.41016,-0.498047 0.82032,-1.025391 0.41992,-0.537109 0.74218,-1.132812 0.33204,-0.605469 0.53711,-1.298828 0.20508,-0.703125 0.20508,-1.552735 0,-0.888672 -0.26367,-1.689453 -0.25391,-0.810547 -0.74219,-1.416015 -0.48828,-0.605469 -1.20117,-0.957032 -0.71289,-0.361328 -1.62109,-0.361328 -0.9375,0 -1.57227,0.458985 -0.63476,0.458984 -1.04492,1.308593 -0.41016,0.84961 -0.63477,2.060547 -0.22461,1.201172 -0.34179,2.695313 -0.15625,1.884765 -0.20508,4.140625 -0.0488,2.246093 -0.15625,4.863281 -0.0684,1.748047 -0.17578,3.486328 -0.10742,1.738281 -0.30274,3.408203 -0.18554,1.669922 -0.49804,3.232422 -0.3125,1.5625 -0.79102,2.949219 -0.57617,1.669922 -1.29883,2.802734 -0.72265,1.132813 -1.5332,1.826174 -0.81055,0.69336 -1.68945,0.99609 -0.87891,0.30274 -1.76758,0.30274 -0.75195,0 -1.38672,-0.16602 -0.64453,-0.16601 -1.11328,-0.44922 -0.47852,-0.2832 -0.74219,-0.66406 -0.27344,-0.37109 -0.27344,-0.791016 0,-0.234375 0.10743,-0.46875 0.10742,-0.22461 0.30273,-0.400391 0.18555,-0.175781 0.44922,-0.292969 0.2539,-0.107422 0.55664,-0.107422 z"
         style=""
         id="path5156" />
      <path
         d="m -728.29883,83.666016 q 0.0879,0.224609 0.11719,0.439453 0.0391,0.205078 0.0391,0.371093 0,0.283204 -0.10742,0.449219 -0.10742,0.166016 -0.3418,0.263672 -0.22461,0.09766 -0.5957,0.126953 -0.36133,0.0293 -0.87891,0.0293 -0.47851,0 -0.95703,-0.01953 -0.46875,-0.01953 -0.96679,-0.04883 -0.49805,-0.0293 -0.98633,-0.04883 -0.47852,-0.0293 -0.97656,-0.0293 -0.64454,0 -1.26954,0.06836 -0.625,0.05859 -1.25,0.234375 0,-0.595703 0.20508,-0.947266 0.21485,-0.351562 0.59571,-0.537109 0.38085,-0.185547 0.91796,-0.244141 0.54688,-0.05859 1.21094,-0.05859 0.67383,0 1.46485,0.03906 0.80078,0.03906 1.71875,0.03906 0.55664,0 1.08398,-0.01953 0.53711,-0.0293 0.97656,-0.107421 z"
         style=""
         id="path5158" />
      <path
         d="m -725.59375,86.390625 q 0,-0.986328 0.20508,-2.001953 0.20508,-1.015625 0.60547,-1.962891 0.40039,-0.957031 0.98633,-1.787109 0.5957,-0.839844 1.36718,-1.464844 0.77149,-0.625 1.71875,-0.986328 0.94727,-0.361328 2.06055,-0.361328 1.25,0 2.20703,0.527344 0.9668,0.527343 1.62109,1.396484 0.6543,0.859375 0.98633,1.962891 0.3418,1.103515 0.3418,2.255859 0,0.986328 -0.20508,2.001953 -0.20508,1.015625 -0.61523,1.972656 -0.40039,0.947266 -0.9961,1.78711 -0.58593,0.830078 -1.35742,1.455078 -0.77148,0.625 -1.71875,0.986328 -0.94726,0.361328 -2.06055,0.361328 -1.25,0 -2.21679,-0.527344 -0.95703,-0.527343 -1.61133,-1.386718 -0.64453,-0.869141 -0.98633,-1.972657 -0.33203,-1.103515 -0.33203,-2.255859 z m 2.33398,-0.927734 q 0,0.664062 0.0977,1.347656 0.10742,0.683594 0.32227,1.318359 0.21484,0.634766 0.52734,1.191406 0.32227,0.546875 0.75195,0.957032 0.43946,0.410156 0.97657,0.644531 0.54687,0.234375 1.20117,0.234375 0.71289,0 1.25,-0.302734 0.54687,-0.3125 0.9375,-0.820313 0.40039,-0.507812 0.65429,-1.162109 0.26368,-0.654297 0.41993,-1.347657 0.15625,-0.703125 0.21484,-1.386718 0.0684,-0.683594 0.0684,-1.259766 0,-0.673828 -0.10742,-1.347656 -0.0977,-0.683594 -0.3125,-1.308594 -0.21485,-0.634766 -0.53711,-1.181641 -0.3125,-0.55664 -0.75195,-0.957031 -0.42969,-0.410156 -0.97657,-0.644531 -0.53711,-0.234375 -1.1914,-0.234375 -0.71289,0 -1.25977,0.302734 -0.53711,0.302735 -0.9375,0.810547 -0.39062,0.507813 -0.6543,1.16211 -0.2539,0.654296 -0.41015,1.347656 -0.15625,0.693359 -0.22461,1.386719 -0.0586,0.683593 -0.0586,1.25 z"
         style=""
         id="path5160" />
      <path
         d="m -702.75195,83.666016 q 0.0879,0.224609 0.11718,0.439453 0.0391,0.205078 0.0391,0.371093 0,0.283204 -0.10742,0.449219 -0.10743,0.166016 -0.3418,0.263672 -0.22461,0.09766 -0.5957,0.126953 -0.36133,0.0293 -0.87891,0.0293 -0.47852,0 -0.95703,-0.01953 -0.46875,-0.01953 -0.9668,-0.04883 -0.49805,-0.0293 -0.98633,-0.04883 -0.47851,-0.0293 -0.97656,-0.0293 -0.64453,0 -1.26953,0.06836 -0.625,0.05859 -1.25,0.234375 0,-0.595703 0.20508,-0.947266 0.21484,-0.351562 0.5957,-0.537109 0.38086,-0.185547 0.91797,-0.244141 0.54687,-0.05859 1.21094,-0.05859 0.67382,0 1.46484,0.03906 0.80078,0.03906 1.71875,0.03906 0.55664,0 1.08398,-0.01953 0.53711,-0.0293 0.97657,-0.107421 z"
         style=""
         id="path5162" />
      <path
         d="m -675.44727,91.283203 q -0.70312,0.302734 -1.29882,0.527344 -0.58594,0.214844 -1.09375,0.351562 -0.50782,0.146485 -0.94727,0.214844 -0.43945,0.06836 -0.84961,0.06836 -0.55664,0 -0.97656,-0.214843 -0.41992,-0.205078 -0.70313,-0.683594 -0.27343,-0.478516 -0.41015,-1.259766 -0.13672,-0.78125 -0.13672,-1.933593 v -0.859375 q 0,-0.605469 0,-1.396485 0.01,-0.800781 0.0195,-1.689453 0.01,-0.898437 0.0195,-1.826172 0.0195,-0.927734 0.0391,-1.787109 0.0195,-0.869141 0.0391,-1.621094 0.0195,-0.751953 0.0391,-1.279297 0.0488,-1.142578 0.10742,-2.27539 0.0684,-1.142579 0.17578,-2.236329 l -0.0781,-0.0293 q -0.16602,0.439453 -0.40039,1.005859 -0.23438,0.556641 -0.59571,1.347656 -0.85937,1.894531 -1.75781,3.925781 -0.88867,2.03125 -1.80664,4.150391 -0.9082,2.109375 -1.83594,4.287109 -0.92773,2.167969 -1.8457,4.335938 l -0.47852,-0.01953 q -0.20507,-0.664063 -0.49804,-1.5625 -0.29297,-0.908203 -0.64453,-1.953125 -0.35157,-1.054688 -0.75196,-2.216797 -0.39062,-1.171875 -0.80078,-2.363281 -0.41015,-1.201172 -0.83008,-2.392579 -0.41015,-1.191406 -0.80078,-2.294921 -0.38086,-1.103516 -0.73242,-2.070313 -0.3418,-0.976562 -0.61523,-1.738281 -0.3125,-0.888672 -0.54688,-1.572266 -0.22461,-0.683594 -0.39062,-1.210937 l -0.0684,0.0293 q 0,0.292968 0,0.585937 0.01,0.283203 0.01,0.615234 v 1.611329 q 0,1.552734 -0.0488,3.173828 -0.0488,1.611328 -0.12695,3.183593 -0.0781,1.5625 -0.18555,3.027344 -0.10742,1.464844 -0.22461,2.705078 -0.0977,1.025391 -0.18554,1.748047 -0.0781,0.712891 -0.18555,1.201172 -0.0977,0.488281 -0.24414,0.771484 -0.14648,0.273438 -0.37109,0.419922 -0.21485,0.146485 -0.53711,0.185547 -0.3125,0.03906 -0.75196,0.03906 h -0.29296 q -0.0879,0 -0.21485,-0.0098 -0.12695,0 -0.3125,-0.0098 l -0.13672,-0.09766 q 0.45899,-0.947265 0.81055,-2.109375 0.36133,-1.171875 0.625,-2.480469 0.27344,-1.308593 0.46875,-2.705078 0.19531,-1.40625 0.32227,-2.802734 0.13671,-1.396484 0.21484,-2.753906 0.0879,-1.357422 0.12695,-2.578125 0.0391,-1.220703 0.0488,-2.25586 0.0195,-1.035156 0.0195,-1.80664 0,-0.498047 -0.0684,-0.820313 -0.0684,-0.322265 -0.24414,-0.507812 -0.16601,-0.195313 -0.46875,-0.263672 -0.29297,-0.07813 -0.76172,-0.07813 -0.32226,0 -0.74218,0.04883 -0.41993,0.03906 -0.92774,0.117187 l -0.10742,-0.859375 q 1.78711,-0.410156 2.93945,-0.605468 1.15235,-0.205078 1.83594,-0.205078 0.35156,0 0.60547,0.06836 0.2539,0.05859 0.43945,0.214844 0.19531,0.146484 0.3418,0.40039 0.14648,0.244141 0.2832,0.615235 0.51758,1.445312 1.09375,3.076172 0.57617,1.630859 1.17188,3.330078 0.60547,1.699218 1.20117,3.408203 0.60547,1.699219 1.16211,3.300781 0.21484,0.634766 0.39062,1.162109 0.18555,0.517579 0.33203,0.966797 0.15625,0.439453 0.28321,0.84961 0.13672,0.40039 0.2539,0.800781 h 0.0684 q 0.15625,-0.419922 0.32227,-0.820313 0.16601,-0.410156 0.35156,-0.839843 0.18555,-0.439453 0.40039,-0.9375 0.22461,-0.498047 0.49805,-1.123047 0.68359,-1.5625 1.41601,-3.242188 0.74219,-1.679687 1.51368,-3.4375 0.78125,-1.757812 1.58203,-3.564453 0.80078,-1.80664 1.61133,-3.623047 0.0879,-0.195312 0.23437,-0.322265 0.15625,-0.126953 0.33203,-0.195313 0.18555,-0.07813 0.38086,-0.107422 0.19531,-0.0293 0.36133,-0.0293 0.2832,0 0.61523,0.07813 0.3418,0.06836 0.6543,0.205079 -0.14648,1.601562 -0.26367,3.066406 -0.10742,1.464844 -0.18555,2.851562 -0.0781,1.386719 -0.13672,2.744141 -0.0586,1.347656 -0.0879,2.724609 -0.0293,1.376953 -0.0488,2.8125 -0.01,1.435547 -0.01,2.998047 0,1.035156 0.0879,1.767578 0.0879,0.732422 0.30273,1.201172 0.22461,0.458985 0.59571,0.673828 0.37109,0.214844 0.92773,0.214844 0.20508,0 0.39063,-0.0098 0.19531,-0.0098 0.40039,-0.03906 0.20507,-0.03906 0.44922,-0.107422 0.2539,-0.06836 0.57617,-0.175781 z"
         style=""
         id="path5164" />
      <path
         d="m -664.90039,88.978516 q 0.0586,0.0293 0.14648,0.08789 0.0977,0.04883 0.17579,0.117188 0.0781,0.05859 0.13671,0.136718 0.0586,0.06836 0.0586,0.136719 0,0.03906 -0.0293,0.07813 -0.54687,0.761719 -1.18164,1.328125 -0.625,0.556641 -1.30859,0.9375 -0.67383,0.371094 -1.37696,0.546875 -0.70312,0.185547 -1.38672,0.185547 -1.17187,0 -2.14843,-0.478516 -0.97657,-0.478515 -1.67969,-1.308593 -0.70313,-0.830078 -1.10352,-1.94336 -0.39062,-1.123047 -0.39062,-2.402343 0,-1.044922 0.22461,-2.089844 0.23437,-1.044922 0.66406,-1.992188 0.43945,-0.947265 1.06445,-1.757812 0.625,-0.820313 1.41602,-1.416016 0.80078,-0.605469 1.74805,-0.947265 0.95703,-0.341797 2.05078,-0.341797 0.72265,0 1.37695,0.195312 0.6543,0.195313 1.14258,0.566406 0.49805,0.361329 0.79101,0.898438 0.29297,0.537109 0.29297,1.220703 0,0.996094 -0.65429,1.738281 -0.64453,0.742188 -1.78711,1.259766 -1.14258,0.517578 -2.69532,0.839844 -1.54296,0.3125 -3.33984,0.46875 v 0.166015 q 0,1.25 0.3125,2.285157 0.32227,1.035156 0.87891,1.777343 0.55664,0.732422 1.30859,1.142578 0.75195,0.410157 1.62109,0.410157 0.87891,0 1.79688,-0.429688 0.92773,-0.439453 1.875,-1.416015 z m -1.83594,-7.841797 q 0,-0.449219 -0.15625,-0.839844 -0.14648,-0.390625 -0.41992,-0.673828 -0.26367,-0.292969 -0.63477,-0.458985 -0.37109,-0.166015 -0.80078,-0.166015 -0.63476,0 -1.15234,0.224609 -0.51758,0.22461 -0.92773,0.615235 -0.41016,0.380859 -0.72266,0.898437 -0.3125,0.507813 -0.53711,1.083984 -0.21484,0.576172 -0.35156,1.181641 -0.13672,0.605469 -0.19532,1.181641 1.38672,-0.09766 2.48047,-0.332032 1.10352,-0.24414 1.85547,-0.615234 0.76172,-0.380859 1.16211,-0.898437 0.40039,-0.527344 0.40039,-1.201172 z"
         style=""
         id="path5166" />
      <path
         d="m -657.41992,70.892578 q -0.41016,1.855469 -0.69336,3.837891 -0.27344,1.972656 -0.46875,3.896484 0.45898,0.01953 0.88867,0.0293 0.43945,0.0098 0.81055,0.01953 0.38086,0.0098 0.68359,0.0098 0.3125,0 0.51758,0 0.88867,0 1.45508,-0.107422 0.0488,0.166016 0.0781,0.302734 0.0293,0.136719 0.0293,0.253907 0,0.429687 -0.36133,0.55664 -0.35156,0.126953 -1.02539,0.126953 -0.64453,0 -1.44531,-0.07813 -0.79102,-0.07813 -1.73828,-0.146484 -0.10742,1.044922 -0.18555,2.041016 -0.0684,0.986328 -0.11719,1.865234 -0.0391,0.878906 -0.0586,1.630859 -0.0195,0.751953 -0.0195,1.308594 0,1.044922 0.10742,1.865234 0.10742,0.820313 0.38086,1.396485 0.27344,0.566406 0.75195,0.86914 0.47852,0.302735 1.21094,0.302735 0.52734,0 1.17187,-0.185547 0.6543,-0.185547 1.48438,-0.595703 0.26367,0.263672 0.30273,0.644531 -0.60546,0.400391 -1.2207,0.732422 -0.61523,0.322266 -1.21094,0.556641 -0.5957,0.234375 -1.15234,0.361328 -0.55664,0.126953 -1.05469,0.126953 -0.65429,0 -1.20117,-0.244141 -0.53711,-0.234375 -0.9375,-0.839844 -0.39062,-0.615234 -0.61523,-1.65039 -0.21485,-1.035156 -0.21485,-2.617188 0,-0.888672 0.0293,-1.826172 0.0293,-0.947265 0.0781,-1.914062 0.0488,-0.966797 0.12696,-1.933594 0.0781,-0.966797 0.17578,-1.904297 -0.77149,0.0098 -1.43555,0.06836 -0.6543,0.04883 -1.12305,0.166015 -0.0293,-0.05859 -0.0293,-0.136718 0,-0.205079 0.19531,-0.38086 0.20508,-0.185547 0.55664,-0.332031 0.36133,-0.146484 0.85938,-0.244141 0.49804,-0.09766 1.09375,-0.136718 0.22461,-2.041016 0.47851,-3.857422 0.25391,-1.816407 0.50781,-3.242188 0.0488,-0.253906 0.17579,-0.419922 0.13671,-0.166015 0.3125,-0.263672 0.17578,-0.09766 0.38085,-0.136718 0.20508,-0.03906 0.4004,-0.03906 0.32226,0 0.57617,0.06836 0.26367,0.06836 0.48828,0.195312 z"
         style=""
         id="path5168" />
      <path
         d="m -643.02539,88.978516 q 0.0586,0.0293 0.14648,0.08789 0.0977,0.04883 0.17579,0.117188 0.0781,0.05859 0.13671,0.136718 0.0586,0.06836 0.0586,0.136719 0,0.03906 -0.0293,0.07813 -0.54687,0.761719 -1.18164,1.328125 -0.625,0.556641 -1.30859,0.9375 -0.67383,0.371094 -1.37696,0.546875 -0.70312,0.185547 -1.38672,0.185547 -1.17187,0 -2.14843,-0.478516 -0.97657,-0.478515 -1.67969,-1.308593 -0.70313,-0.830078 -1.10352,-1.94336 -0.39062,-1.123047 -0.39062,-2.402343 0,-1.044922 0.22461,-2.089844 0.23437,-1.044922 0.66406,-1.992188 0.43945,-0.947265 1.06445,-1.757812 0.625,-0.820313 1.41602,-1.416016 0.80078,-0.605469 1.74805,-0.947265 0.95703,-0.341797 2.05078,-0.341797 0.72265,0 1.37695,0.195312 0.6543,0.195313 1.14258,0.566406 0.49805,0.361329 0.79101,0.898438 0.29297,0.537109 0.29297,1.220703 0,0.996094 -0.65429,1.738281 -0.64453,0.742188 -1.78711,1.259766 -1.14258,0.517578 -2.69532,0.839844 -1.54296,0.3125 -3.33984,0.46875 v 0.166015 q 0,1.25 0.3125,2.285157 0.32227,1.035156 0.87891,1.777343 0.55664,0.732422 1.30859,1.142578 0.75195,0.410157 1.62109,0.410157 0.87891,0 1.79688,-0.429688 0.92773,-0.439453 1.875,-1.416015 z m -1.83594,-7.841797 q 0,-0.449219 -0.15625,-0.839844 -0.14648,-0.390625 -0.41992,-0.673828 -0.26367,-0.292969 -0.63477,-0.458985 -0.37109,-0.166015 -0.80078,-0.166015 -0.63476,0 -1.15234,0.224609 -0.51758,0.22461 -0.92773,0.615235 -0.41016,0.380859 -0.72266,0.898437 -0.3125,0.507813 -0.53711,1.083984 -0.21484,0.576172 -0.35156,1.181641 -0.13672,0.605469 -0.19532,1.181641 1.38672,-0.09766 2.48047,-0.332032 1.10352,-0.24414 1.85547,-0.615234 0.76172,-0.380859 1.16211,-0.898437 0.40039,-0.527344 0.40039,-1.201172 z"
         style=""
         id="path5170" />
      <path
         d="m -639.10937,92.259766 -0.15625,-0.0098 q 0.0781,-0.927734 0.14648,-2.021484 0.0684,-1.09375 0.12695,-2.216797 0.0586,-1.132813 0.0977,-2.236328 0.0488,-1.113282 0.0781,-2.070313 0.0391,-0.966797 0.0488,-1.728516 0.0195,-0.761718 0.0195,-1.201171 0,-0.361329 -0.0293,-0.625 -0.0293,-0.263672 -0.13672,-0.439454 -0.0977,-0.175781 -0.29297,-0.253906 -0.19531,-0.08789 -0.52734,-0.08789 -0.16602,0 -0.3418,0.01953 -0.17578,0.01953 -0.39063,0.05859 -0.21484,0.03906 -0.48828,0.107421 -0.26367,0.05859 -0.61523,0.146485 l -0.14649,-0.703125 q 1.6211,-0.585938 2.62696,-0.820313 1.00586,-0.24414 1.35742,-0.24414 0.64453,0 0.91797,0.380859 0.2832,0.371094 0.2832,1.113281 0,0.06836 -0.0195,0.400391 -0.0195,0.332031 -0.0586,0.869141 -0.0293,0.527343 -0.0781,1.230468 -0.0488,0.703125 -0.11719,1.513672 -0.0586,0.800781 -0.13672,1.679688 -0.0781,0.86914 -0.16601,1.738281 l 0.0977,0.0098 q 0.46875,-1.914063 1.05469,-3.564454 0.59571,-1.660156 1.32813,-2.880859 0.74218,-1.220703 1.62109,-1.914062 0.88867,-0.703125 1.94336,-0.703125 0.37109,0 0.69336,0.117187 0.32227,0.117188 0.55664,0.332031 0.23438,0.205078 0.37109,0.498047 0.13672,0.283203 0.13672,0.625 0,0.439453 -0.19531,0.84961 -0.18555,0.40039 -0.5957,0.71289 h -0.0781 q -0.41015,-0.341797 -0.78125,-0.488281 -0.36133,-0.15625 -0.77148,-0.15625 -0.43946,0 -0.84961,0.166016 -0.41016,0.166015 -0.75195,0.478515 -0.55665,0.507813 -1.03516,1.347656 -0.47852,0.830079 -0.87891,1.845704 -0.39062,1.015625 -0.71289,2.138671 -0.3125,1.113282 -0.54687,2.177735 -0.22461,1.054687 -0.3711,1.992187 -0.13672,0.927735 -0.19531,1.5625 z"
         style=""
         id="path5172" />
    </g>
  </g>
</svg>
