<?xml version="1.0" encoding="UTF-8" standalone="no"?>
<svg
   xmlns:dc="http://purl.org/dc/elements/1.1/"
   xmlns:cc="http://creativecommons.org/ns#"
   xmlns:rdf="http://www.w3.org/1999/02/22-rdf-syntax-ns#"
   xmlns:svg="http://www.w3.org/2000/svg"
   xmlns="http://www.w3.org/2000/svg"
   id="svg8"
   version="1.1"
   viewBox="0 0 16.747383 21.366526"
   height="21.366526mm"
   width="16.747383mm">
  <defs
     id="defs2" />
  <metadata
     id="metadata5">
    <rdf:RDF>
      <cc:Work
         rdf:about="">
        <dc:format>image/svg+xml</dc:format>
        <dc:type
           rdf:resource="http://purl.org/dc/dcmitype/StillImage" />
        <dc:title></dc:title>
      </cc:Work>
    </rdf:RDF>
  </metadata>
  <g
     transform="translate(-67.525448,-41.220901)"
     id="layer1">
    <circle
       r="2.6222098"
       cx="71.659561"
       cy="59.815216"
       id="path826"
       style="opacity:0.92000002;fill:none;fill-opacity:1;stroke:#1e837f;stroke-width:0.30000001;stroke-miterlimit:4;stroke-dasharray:none;stroke-opacity:1" />
    <path
       id="path828"
       d="m 67.525448,59.177382 h 1.511905 v 0.236235"
       style="opacity:1;vector-effect:none;fill:none;fill-opacity:1;stroke:#298884;stroke-width:0.30000001;stroke-linecap:butt;stroke-linejoin:miter;stroke-miterlimit:4;stroke-dasharray:none;stroke-dashoffset:0;stroke-opacity:1" />
    <path
       id="path830"
       d="m 76.624684,47.663175 -4.561623,4.082357"
       style="opacity:1;vector-effect:none;fill:none;fill-opacity:1;stroke:#387d7a;stroke-width:0.25;stroke-linecap:butt;stroke-linejoin:miter;stroke-miterlimit:4;stroke-dasharray:none;stroke-dashoffset:0;stroke-opacity:1" />
    <path
       id="path830-9"
       d="m 83.393361,41.607985 -5.543014,5.012193"
       style="opacity:1;vector-effect:none;fill:none;fill-opacity:1;stroke:#387d7a;stroke-width:0.25;stroke-linecap:butt;stroke-linejoin:miter;stroke-miterlimit:4;stroke-dasharray:none;stroke-dashoffset:0;stroke-opacity:1" />
    <circle
       r="0.35663778"
       cy="60.222462"
       cx="70.625015"
       id="path847"
       style="opacity:0.92000002;fill:#258682;fill-opacity:1;stroke:none;stroke-width:0.5;stroke-miterlimit:4;stroke-dasharray:none;stroke-opacity:1" />
    <circle
       r="0.33909824"
       cy="59.182613"
       cx="71.539581"
       id="path847-2"
       style="opacity:0.92000002;fill:#258682;fill-opacity:1;stroke:none;stroke-width:0.5;stroke-miterlimit:4;stroke-dasharray:none;stroke-opacity:1" />
    <circle
       r="0.31571218"
       cy="60.109703"
       cx="72.36644"
       id="path847-6"
       style="opacity:0.92000002;fill:#258682;fill-opacity:1;stroke:none;stroke-width:0.5;stroke-miterlimit:4;stroke-dasharray:none;stroke-opacity:1" />
    <circle
       r="0.32740521"
       cy="60.928219"
       cx="71.6231"
       id="path847-63"
       style="opacity:0.92000002;fill:#258682;fill-opacity:1;stroke:none;stroke-width:0.5;stroke-miterlimit:4;stroke-dasharray:none;stroke-opacity:1" />
    <path
       id="path876"
       d="m 71.55294,59.198484 c 2.690796,-0.472279 5.121646,-0.898933 7.564538,-3.036892 2.442891,-2.137958 4.347444,-5.83676 4.780655,-8.04187 0.433211,-2.20511 -0.404492,-4.472561 -0.678799,-5.53503 -0.274308,-1.062468 -0.111027,-1.259569 0.128957,-1.169195 0.239984,0.09037 0.567475,0.480516 0.686058,1.31368 0.118583,0.833165 0.04453,2.224569 -0.02713,3.570912"
       style="fill:none;stroke:#2b8a86;stroke-width:0.34999999;stroke-linecap:butt;stroke-linejoin:miter;stroke-miterlimit:4;stroke-dasharray:none;stroke-opacity:1" />
    <path
       id="path882"
       d="m 71.55294,59.198484 c 2.026737,-0.09155 7.944782,-1.636573 8.560051,-4.679718 0.321223,-1.58878 0.211852,-4.658871 -1.04693,-6.587647 -1.105539,-1.693968 -3.141153,-2.307595 -3.799762,-2.445874 -1.31889,-0.276909 -3.457512,0.573146 -4.130769,1.722435 -0.542025,0.925268 -0.532305,1.163842 -0.483148,1.765273 0.02337,0.285978 1.42839,1.97756 1.663947,2.350268 0.104864,0.165922 0.187337,0.425705 0.03508,0.549572 -0.212424,0.17281 -0.418649,-0.03946 -0.584652,-0.257248 -0.233063,-0.305762 -1.114375,-2.642592 -1.114375,-2.642592"
       style="opacity:1;vector-effect:none;fill:none;fill-opacity:1;stroke:#298884;stroke-width:0.34999999;stroke-linecap:butt;stroke-linejoin:miter;stroke-miterlimit:4;stroke-dasharray:none;stroke-dashoffset:0;stroke-opacity:1" />
    <path
       id="path4587"
       d="M 83.279956,41.883292 Z"
       style="opacity:1;vector-effect:none;fill:none;fill-opacity:1;stroke:#000000;stroke-width:0.5;stroke-linecap:butt;stroke-linejoin:miter;stroke-miterlimit:4;stroke-dasharray:none;stroke-dashoffset:0;stroke-opacity:1" />
    <path
       id="path4589"
       d="m 83.279956,41.883292 c 0,0 0,0 0,0 z"
       style="opacity:1;vector-effect:none;fill:none;fill-opacity:1;stroke:#000000;stroke-width:0.5;stroke-linecap:butt;stroke-linejoin:miter;stroke-miterlimit:4;stroke-dasharray:none;stroke-dashoffset:0;stroke-opacity:1" />
  </g>
</svg>
